<svg width="36" height="36" viewBox="0 0 36 36" fill="none" xmlns="http://www.w3.org/2000/svg">
<circle cx="27.5148" cy="8.84551" r="8.06182" fill="#1DBCD2"/>
<path d="M27.8176 12.6852C27.1042 12.6852 26.4876 12.4719 25.9676 12.0452C25.4476 11.6119 25.1742 11.0085 25.1476 10.2352H26.6476C26.6809 10.5552 26.8009 10.7952 27.0076 10.9552C27.2142 11.1152 27.4842 11.1952 27.8176 11.1952C28.1109 11.1952 28.3442 11.1252 28.5176 10.9852C28.6976 10.8385 28.7909 10.6485 28.7976 10.4152C28.8042 10.1619 28.7109 9.9552 28.5176 9.7952C28.3242 9.6352 28.0676 9.5552 27.7476 9.5552H27.1276V8.3452H27.6676C28.2742 8.3452 28.5842 8.08853 28.5976 7.5752C28.6042 7.36186 28.5309 7.18853 28.3776 7.05519C28.2242 6.9152 28.0276 6.8452 27.7876 6.8452C27.4942 6.8452 27.2542 6.93186 27.0676 7.10519C26.8809 7.27853 26.7909 7.48853 26.7976 7.7352H25.2876C25.2876 7.0152 25.5376 6.43853 26.0376 6.0052C26.5442 5.57186 27.1276 5.35519 27.7876 5.35519C28.5142 5.35519 29.0842 5.55853 29.4976 5.9652C29.9109 6.3652 30.1176 6.85853 30.1176 7.4452C30.1176 7.7652 30.0442 8.06186 29.8976 8.3352C29.7576 8.60186 29.5842 8.8152 29.3776 8.9752C29.6442 9.10853 29.8676 9.30853 30.0476 9.5752C30.2276 9.84186 30.3176 10.1652 30.3176 10.5452C30.3176 11.1719 30.0842 11.6852 29.6176 12.0852C29.1576 12.4852 28.5576 12.6852 27.8176 12.6852Z" fill="white"/>
<path d="M18.1158 17.6427V15.505C18.1158 14.8389 17.9846 14.1793 17.7297 13.5639C17.4748 12.9485 17.1012 12.3893 16.6301 11.9183C16.1591 11.4473 15.6 11.0736 14.9845 10.8187C14.3691 10.5638 13.7095 10.4326 13.0434 10.4326C12.3773 10.4326 11.7177 10.5638 11.1023 10.8187C10.4869 11.0736 9.92768 11.4473 9.45666 11.9183C8.98564 12.3893 8.61201 12.9485 8.3571 13.5639C8.10218 14.1793 7.97098 14.8389 7.97098 15.505V20.5775C7.97098 20.7696 8.04733 20.954 8.18322 21.0899C8.31912 21.2257 8.50343 21.3021 8.69561 21.3021C8.8878 21.3021 9.07211 21.2257 9.20801 21.0899C9.3439 20.954 9.42025 20.7696 9.42025 20.5775V19.092H15.2173V17.6427H9.42025V15.505C9.42025 14.5441 9.80197 13.6226 10.4814 12.9431C11.1609 12.2636 12.0825 11.8819 13.0434 11.8819C14.0043 11.8819 14.9259 12.2636 15.6054 12.9431C16.2848 13.6226 16.6666 14.5441 16.6666 15.505V20.5412C16.6666 20.7334 16.7429 20.9177 16.8788 21.0536C17.0147 21.1895 17.199 21.2659 17.3912 21.2659C17.5834 21.2659 17.7677 21.1895 17.9036 21.0536C18.0395 20.9177 18.1158 20.7334 18.1158 20.5412V19.092H21.739V32.1353H4.34782V19.092H6.52172V17.6427H2.89856V32.2006C2.89856 32.5676 3.04438 32.9197 3.30394 33.1792C3.5635 33.4388 3.91553 33.5846 4.28261 33.5846H21.8042C22.1713 33.5846 22.5233 33.4388 22.7829 33.1792C23.0424 32.9197 23.1882 32.5676 23.1882 32.2006V17.6427H18.1158Z" fill="#2B2E34"/>
<path fill-rule="evenodd" clip-rule="evenodd" d="M6.52168 17.6426V19.0919H4.34779V32.1352H21.739V19.0919H18.1158V20.5411C18.1158 20.7333 18.0394 20.9176 17.9036 21.0535C17.7677 21.1894 17.5833 21.2658 17.3912 21.2658C17.199 21.2658 17.0147 21.1894 16.8788 21.0535C16.7429 20.9176 16.6665 20.7333 16.6665 20.5411V15.5049C16.6665 14.544 16.2848 13.6225 15.6053 12.943C14.9259 12.2635 14.0043 11.8818 13.0434 11.8818C12.0824 11.8818 11.1609 12.2635 10.4814 12.943C9.80193 13.6225 9.42021 14.544 9.42021 15.5049V17.6426H15.2173V19.0919H9.42021V20.5774C9.42021 20.7695 9.34386 20.9539 9.20797 21.0898C9.07207 21.2256 8.88776 21.302 8.69558 21.302C8.50339 21.302 8.31908 21.2256 8.18319 21.0898C8.04729 20.9539 7.97095 20.7695 7.97095 20.5774V15.5049C7.97095 14.8388 8.10215 14.1792 8.35706 13.5638C8.61197 12.9484 8.98561 12.3892 9.45662 11.9182C9.92764 11.4472 10.4868 11.0735 11.1022 10.8186C11.7177 10.5637 12.3772 10.4325 13.0434 10.4325C13.7095 10.4325 14.3691 10.5637 14.9845 10.8186C15.5999 11.0735 16.1591 11.4472 16.6301 11.9182C17.1011 12.3892 17.4748 12.9484 17.7297 13.5638C17.9846 14.1792 18.1158 14.8388 18.1158 15.5049V17.6426H23.1882V32.2005C23.1882 32.5675 23.0424 32.9196 22.7828 33.1791C22.5233 33.4387 22.1712 33.5845 21.8042 33.5845H4.28257C3.9155 33.5845 3.56346 33.4387 3.3039 33.1791C3.04434 32.9196 2.89852 32.5675 2.89852 32.2005V17.6426H6.52168ZM18.2158 17.5426H23.2882V32.2005C23.2882 32.594 23.1319 32.9715 22.8535 33.2498C22.5752 33.5281 22.1978 33.6845 21.8042 33.6845H4.28257C3.88898 33.6845 3.5115 33.5281 3.23319 33.2498C2.95488 32.9715 2.79852 32.594 2.79852 32.2005V17.5426H6.62168V19.1919H4.44779V32.0352H21.639V19.1919H18.2158V20.5411C18.2158 20.7598 18.1289 20.9696 17.9743 21.1242C17.8196 21.2789 17.6099 21.3658 17.3912 21.3658C17.1725 21.3658 16.9627 21.2789 16.8081 21.1242C16.6534 20.9696 16.5665 20.7598 16.5665 20.5411V15.5049C16.5665 14.5705 16.1953 13.6744 15.5346 13.0137C14.8739 12.353 13.9778 11.9818 13.0434 11.9818C12.109 11.9818 11.2128 12.353 10.5521 13.0137C9.8914 13.6744 9.52021 14.5705 9.52021 15.5049V17.5426H15.3173V19.1919H9.52021V20.5774C9.52021 20.7961 9.43333 21.0058 9.27868 21.1605C9.12403 21.3151 8.91428 21.402 8.69558 21.402C8.47687 21.402 8.26712 21.3151 8.11247 21.1605C7.95783 21.0058 7.87095 20.7961 7.87095 20.5774V15.5049C7.87095 14.8257 8.00473 14.1531 8.26467 13.5255C8.52461 12.898 8.90561 12.3278 9.38591 11.8475C9.86622 11.3672 10.4364 10.9862 11.064 10.7262C11.6915 10.4663 12.3641 10.3325 13.0434 10.3325C13.7226 10.3325 14.3952 10.4663 15.0228 10.7262C15.6503 10.9862 16.2205 11.3672 16.7008 11.8475C17.1811 12.3278 17.5621 12.898 17.8221 13.5255C18.082 14.1531 18.2158 14.8257 18.2158 15.5049V17.5426Z" fill="#2B2E34"/>
</svg>
